<?xml version="1.0" encoding="UTF-8"?>
<svg id="Capa_2" data-name="Capa 2" xmlns="http://www.w3.org/2000/svg" viewBox="0 0 1771.6 487.53">
  <defs>
    <style>
      .cls-1 {
        letter-spacing: -.03em;
      }

      .cls-2, .cls-3, .cls-4, .cls-5 {
        fill: #fff;
      }

      .cls-3 {
        font-size: 131.84px;
      }

      .cls-3, .cls-5 {
        font-family: BigJohn, 'Big John';
      }

      .cls-6 {
        letter-spacing: .01em;
      }

      .cls-7 {
        letter-spacing: 0em;
      }

      .cls-8 {
        letter-spacing: .01em;
      }

      .cls-9 {
        letter-spacing: 0em;
      }

      .cls-10 {
        letter-spacing: 0em;
      }

      .cls-11 {
        letter-spacing: 0em;
      }

      .cls-12 {
        fill: #3c73b9;
      }

      .cls-13 {
        letter-spacing: -.04em;
      }

      .cls-4 {
        font-family: AcuminVariableConcept, 'Acumin Variable Concept';
        font-size: 48.81px;
        font-variation-settings: 'wght' 194, 'wdth' 100, 'slnt' 0;
      }

      .cls-5 {
        font-size: 192.3px;
      }
    </style>
  </defs>
  <g id="Capa_1-2" data-name="Capa 1">
    <g>
      <g>
        <path class="cls-2" d="M30.95,370.51c-.06-.11-.12-.22-.18-.33.06.11.12.22.18.33Z"/>
        <path class="cls-2" d="M16.75,341.27c-.33-.81-.65-1.62-.97-2.44.32.82.64,1.63.97,2.44Z"/>
        <path class="cls-2" d="M25.82,361.1c-.16-.31-.33-.63-.49-.94.16.31.32.63.49.94Z"/>
        <path class="cls-2" d="M28.39,365.93c-.19-.35-.37-.69-.56-1.04.19.35.37.69.56,1.04Z"/>
        <path class="cls-2" d="M37.19,380.72c-.25-.39-.5-.78-.75-1.17.25.39.5.78.75,1.17Z"/>
        <path class="cls-2" d="M34.13,375.85c-.15-.24-.3-.48-.44-.72.15.24.3.48.44.72Z"/>
        <path class="cls-2" d="M40.12,385.14c-.24-.36-.48-.71-.72-1.07.24.36.48.72.72,1.07Z"/>
        <path class="cls-2" d="M46.74,394.4c-.17-.23-.34-.45-.51-.67.17.23.34.45.51.67Z"/>
        <path class="cls-2" d="M53.56,403.03c-.26-.32-.52-.64-.78-.96.26.32.52.64.78.96Z"/>
        <path class="cls-2" d="M43.06,389.38s-.05-.07-.07-.1c.02.03.05.07.07.1Z"/>
        <path class="cls-2" d="M50.23,398.91c-.28-.35-.55-.7-.83-1.05.27.35.55.7.83,1.05Z"/>
        <path class="cls-2" d="M373.49,364.61l-4.83-22.06h.37l-26.65-121.59c-2.07-5.24-19.98-11.17-24.45-16.05l-16.55-64.79h-3.45l-2.1.89-82.37,9.51-18.2,85.94h-50.9l-9.66,62.61-63.47,27.91-3.46,15.58h-.07l-13.56,61.18c42.8,51.21,107.18,83.8,179.19,83.8s137.78-33.3,180.57-85.48l-7.77-36.49-32.66-.96Z"/>
        <path class="cls-2" d="M14.45,335.34c-.16-.43-.32-.86-.48-1.29.16.43.32.86.48,1.29Z"/>
        <path class="cls-2" d="M42.99,389.28c-.97-1.37-1.93-2.75-2.87-4.14.94,1.39,1.9,2.77,2.87,4.14Z"/>
        <path class="cls-2" d="M52.78,402.07c-.86-1.05-1.71-2.1-2.55-3.16.84,1.06,1.69,2.11,2.55,3.16Z"/>
        <path class="cls-2" d="M39.4,384.07c-.74-1.11-1.48-2.22-2.2-3.34.73,1.12,1.46,2.24,2.2,3.34Z"/>
        <path class="cls-2" d="M17.26,342.55h-.02c2.46,6,5.17,11.87,8.1,17.61-2.93-5.73-5.61-11.61-8.06-17.61h-.02Z"/>
        <path class="cls-2" d="M54.15,403.75v-.02c-.19-.23-.39-.47-.59-.7.2.24.39.48.59.72Z"/>
        <path class="cls-2" d="M46.23,393.72c-1.07-1.44-2.13-2.88-3.17-4.34,1.04,1.46,2.1,2.91,3.17,4.34Z"/>
        <path class="cls-2" d="M49.4,397.86c-.9-1.15-1.78-2.3-2.66-3.46.88,1.16,1.76,2.32,2.66,3.46Z"/>
        <path class="cls-2" d="M30.77,370.18c-.81-1.41-1.6-2.82-2.38-4.25.78,1.43,1.57,2.84,2.38,4.25Z"/>
        <path class="cls-2" d="M27.83,364.89c-.68-1.26-1.35-2.52-2-3.79.66,1.27,1.32,2.54,2,3.79Z"/>
        <path class="cls-2" d="M36.44,379.55c-.78-1.23-1.55-2.46-2.31-3.71.76,1.24,1.53,2.48,2.31,3.71Z"/>
        <path class="cls-2" d="M33.68,375.13c-.93-1.53-1.84-3.07-2.73-4.62.89,1.55,1.81,3.09,2.73,4.62Z"/>
        <path class="cls-12" d="M17.27,342.55c2.45,6,5.14,11.87,8.06,17.61.16.31.32.63.49.94.66,1.27,1.32,2.54,2,3.79.19.35.37.69.56,1.04.78,1.43,1.57,2.84,2.38,4.25.06.11.12.22.18.33.89,1.55,1.81,3.09,2.73,4.62.15.24.3.48.44.72.76,1.24,1.53,2.48,2.31,3.71.25.39.5.78.75,1.17.73,1.12,1.46,2.24,2.2,3.34.24.36.48.72.72,1.07.94,1.39,1.9,2.77,2.87,4.14.02.03.05.07.07.1,1.04,1.46,2.1,2.91,3.17,4.34.17.23.34.45.51.67.88,1.16,1.76,2.32,2.66,3.46.27.35.55.7.83,1.05.84,1.06,1.69,2.11,2.55,3.16.26.32.52.64.78.96.2.24.4.47.59.7l13.56-61.18H17.27Z"/>
        <path class="cls-12" d="M369.04,342.55h-.37l4.83,22.06,32.66.96,7.77,36.49c14.62-17.82,26.63-37.85,35.49-59.5h-80.37Z"/>
        <path class="cls-2" d="M15.78,338.83c-.45-1.16-.9-2.32-1.33-3.49.43,1.17.88,2.33,1.33,3.49Z"/>
        <path class="cls-2" d="M16.75,341.27c.17.43.33.86.51,1.28h.02c-.17-.43-.35-.85-.52-1.28Z"/>
        <path class="cls-12" d="M67.72,342.55h.07l3.46-15.58,63.47-27.91,9.66-62.61h50.9l18.2-85.94,82.37-9.51,2.1-.89h3.45l16.55,64.79c4.46,4.89,22.38,10.81,24.45,16.05l26.65,121.59h80.37c11.13-27.19,17.27-56.95,17.27-88.14,0-128.75-104.47-233.12-233.34-233.12S0,125.67,0,254.42c0,27.97,4.94,54.79,13.98,79.64.16.43.32.86.48,1.29.43,1.17.88,2.33,1.33,3.49.32.81.64,1.63.97,2.44.17.43.35.85.52,1.28h50.44Z"/>
      </g>
      <text class="cls-4" transform="translate(720.86 389.75)"><tspan class="cls-7" x="0" y="0">C</tspan><tspan x="33.14" y="0">ER</tspan><tspan class="cls-11" x="92.25" y="0">C</tspan><tspan x="125.05" y="0">A DE TÍ, </tspan><tspan class="cls-8" x="304.24" y="0">C</tspan><tspan x="337.43" y="0">OMO </tspan><tspan class="cls-9" x="464.33" y="0">U</tspan><tspan class="cls-11" x="499.04" y="0">N</tspan><tspan class="cls-10" x="535.11" y="0">A RO</tspan><tspan class="cls-11" x="645.96" y="0">C</tspan><tspan class="cls-10" x="678.76" y="0">A F</tspan><tspan class="cls-6" x="749.48" y="0">IRM</tspan><tspan x="835.59" y="0">E</tspan></text>
      <text class="cls-3" transform="translate(765.21 112.06)"><tspan class="cls-1" x="0" y="0">F</tspan><tspan x="76.6" y="0">ARM</tspan><tspan class="cls-13" x="411.6" y="0">A</tspan><tspan x="516.68" y="0">CIA</tspan></text>
      <g>
        <path class="cls-2" d="M753.04,222.11c22.46-27.18,1.2-69.41-33.72-69.38h-64.15v145.35s71.71,0,71.71,0c40.07-.54,57.94-51.08,26.16-75.97ZM738.74,236.71h-18.41c0,5.6,0,23.94,0,23.94-.63,16.42-24.59,16.83-25.19,0v-23.94s-18.41,0-18.41,0c-16.62-.39-16.63-24.8,0-25.19h18.41v-25.58c.63-16.42,24.59-16.83,25.19,0v25.58s18.41,0,18.41,0c16.62.39,16.63,24.79,0,25.19Z"/>
        <text class="cls-5" transform="translate(534.16 298.08)"><tspan x="0" y="0">E</tspan></text>
        <g>
          <path class="cls-2" d="M1203.52,151.57c-15.63-6.57-33.49-2-45.49,9.75-3.15,3.08-6.04,6.15-8.24,9.89-1.29,2.21-2.66,3.54-5.06,3.57-2.5.03-4.02-1.02-5.32-3.3-2.19-3.84-5.2-7.01-8.39-10.15-16.14-15.86-41.26-17.35-57.51-1.94-16.32,15.48-14.38,34.47-4.14,52.84,1.54,2.76,1.85,5.63-.8,7.79-1.88,1.54-5.72,1.83-7.46-.98-5.29-8.51-9.7-20.39-10.3-30.6-.72-12.17,3.73-23.58,11.58-32.82,8.73-10.26,20.89-16.28,34.34-17.55,18.88-1.44,35.9,7.43,47.79,22.18,11.8-14.69,29.03-23.66,47.79-22.18,13.48,1.25,25.6,7.27,34.35,17.55,7.99,9.4,12.54,21.21,11.5,33.49-.85,9.99-5.16,22.52-10.58,30.37-1.79,2.6-5.74,1.81-7.33.35-2.46-2.27-2.04-4.92-.56-7.61,6.67-12.15,11.1-26.69,5.05-40.04-4.22-9.31-11.79-16.66-21.22-20.62Z"/>
          <g>
            <path class="cls-2" d="M1255.19,227.81v3.46c-1.19,2.01-2.58,3.82-5.45,3.82l-73.15.08c-4.72,0-5.66-3.32-8.38-6.36l-7.5,27.62c-.7,2.59-2.89,3.65-5.43,3.46-2.19-.16-4.24-1.69-4.64-4.11l-6.96-42.5-3.82,17.18c-.52,2.33-1.95,3.91-4.15,4.39-1.9.41-4.01-.22-5.36-1.95l-6.03-7.73c-2.22,3.1-2.45,9.95-8.07,9.95h-76.56c-3.4,0-5.57-2.11-5.86-4.97-.26-2.62,1.62-5.75,4.87-5.75l74.24-.06,4.41-10.68c.92-2.24,2.06-3.65,4.43-4.11,2.06-.4,3.91.55,5.39,2.36l4.6,5.59,7.48-34.69c.56-2.58,2.64-4.15,5.13-4.27,1.78-.08,4.67,1.42,5.06,3.8l7.65,46.44,3.85-13.51c.6-2.09,2.76-3.28,4.56-3.48,2.23-.25,3.91,1.12,5.18,2.83,2.5,3.37,4.87,6.47,7.66,9.72l71.19-.02c2.79,0,4.3,1.42,5.66,3.48Z"/>
            <path class="cls-2" d="M1202.84,252.05c-6.93,7.42-11.91,12.15-19.41,18.98l-4.56,4.15-4.59,4-8.94,7.54-17.04,13.96c-3.02,2.48-5.74,1.48-8.5-.79-12.48-10.28-24.81-20.45-36.83-31.32l-3.68-3.33c-4.63-4.19-8.84-8.66-13.08-13.2l-4.6-4.92c-2.29-2.45-1.8-5.65.44-7.68,2.34-2.12,5.7-1.63,7.75.75l3.01,3.48,16.49,16.37c3.59,3.57,33.62,29.45,35.03,29.64,1.59.21,31.77-26.01,35.43-29.64l16.49-16.37,3.01-3.48c2.05-2.37,5.4-2.87,7.75-.74,2.23,2.02,2.72,5.22.43,7.67l-4.6,4.92Z"/>
          </g>
        </g>
        <g>
          <polygon class="cls-2" points="783.96 298.15 873.57 298.15 873.57 267.19 821.84 267.19 821.84 240.65 867.61 240.65 867.61 208.73 821.84 208.73 821.84 185.27 873.57 185.27 873.57 153.92 783.96 153.92 783.96 298.15"/>
          <path class="cls-2" d="M1011.84,230.51c0-6.81,4.33-12.59,10.38-14.78v-61.81h-37.88v68.08l-68.27-68.08h-15.38v144.23h37.88v-68.27l68.08,68.27h15.58v-52.87c-6.05-2.19-10.38-7.97-10.38-14.78Z"/>
        </g>
        <g>
          <path class="cls-2" d="M1274.31,215.51c5.9,2.27,10.09,7.97,10.09,14.67s-4.19,12.4-10.09,14.67v51.92h89.62v-30.96h-51.73v-26.54h45.77v-31.92h-45.77v-23.46h51.73v-31.35h-89.62v62.97Z"/>
          <polygon class="cls-2" points="1384.88 152.54 1384.88 190.62 1442.57 190.62 1381.23 296.78 1502.57 296.78 1502.57 258.89 1446.8 258.89 1508.15 152.54 1384.88 152.54"/>
          <polygon class="cls-2" points="1527.57 296.78 1617.18 296.78 1617.18 265.81 1565.45 265.81 1565.45 239.28 1611.22 239.28 1611.22 207.35 1565.45 207.35 1565.45 183.89 1617.18 183.89 1617.18 152.54 1527.57 152.54 1527.57 296.78"/>
          <path class="cls-2" d="M1741.03,244.47c10.39-9.62,17.12-23.46,17.12-38.85,0-29.23-23.85-53.08-53.08-53.08h-60.77v144.23h37.88v-38.27h23.46l22.31,38.27h43.65l-30.58-52.31ZM1705.64,225.81h-23.46v-41.35h23.46c11.54,0,20.77,9.23,20.77,20.77s-9.23,20.58-20.77,20.58Z"/>
        </g>
        <circle class="cls-2" cx="1039.34" cy="230.76" r="11.61"/>
        <circle class="cls-2" cx="1257.86" cy="229.54" r="11.61"/>
      </g>
    </g>
  </g>
</svg>