<?xml version="1.0" encoding="UTF-8"?>
<svg id="Capa_2" data-name="Capa 2" xmlns="http://www.w3.org/2000/svg" viewBox="0 0 74.77 74.69">
  <defs>
    <style>
      .cls-1 {
        fill: #fff;
      }

      .cls-2 {
        fill: #3c73b9;
      }
    </style>
  </defs>
  <g id="Capa_1-2" data-name="Capa 1">
    <path class="cls-1" d="M59.84,55l-.77-3.53h.06l-4.27-19.48c-.33-.84-3.2-1.79-3.92-2.57l-2.65-10.38h-.55l-.34.14-13.2,1.52-2.92,13.77h-8.15l-1.55,10.03-10.17,4.47-.55,2.5h-.01l-2.17,9.8c6.86,8.2,17.17,13.43,28.71,13.43s22.07-5.33,28.93-13.69l-1.24-5.85-5.23-.15Z"/>
    <path class="cls-2" d="M37.38,0C16.74,0,0,16.72,0,37.35c0,4.48.79,8.78,2.24,12.76.03.07.05.14.08.21.07.19.14.37.21.56.05.13.1.26.15.39.03.07.06.14.08.21.39.96.82,1.9,1.29,2.82.03.05.05.1.08.15.11.2.21.41.32.61.03.06.06.11.09.17.12.23.25.46.38.68.01.02.02.03.03.05.14.25.29.5.44.74.02.04.05.08.07.11.12.2.25.4.37.59.04.06.08.12.12.19.12.18.23.36.35.54.04.06.08.11.12.17.15.22.3.44.46.66,0,0,0,.01.01.02.17.23.34.47.51.7.03.04.05.07.08.11.14.19.28.37.43.55.04.06.09.11.13.17.13.17.27.34.41.51.04.05.08.1.13.15.03.04.06.07.09.11l2.17-9.8h.01l.55-2.5,10.17-4.47,1.55-10.03h8.15l2.92-13.77,13.2-1.52.34-.14h.55l2.65,10.38c.72.78,3.59,1.73,3.92,2.57l4.27,19.48h-.06l.77,3.53,5.23.15,1.24,5.85c2.34-2.86,4.27-6.06,5.69-9.53,1.78-4.36,2.77-9.12,2.77-14.12C74.77,16.72,58.03,0,37.38,0Z"/>
  </g>
</svg>