<?xml version="1.0" encoding="UTF-8"?>
<svg id="Capa_2" data-name="Capa 2" xmlns="http://www.w3.org/2000/svg" viewBox="0 0 35.28 35.25">
  <defs>
    <style>
      .cls-1 {
        fill: #fff;
      }

      .cls-2 {
        fill: #243366;
      }
    </style>
  </defs>
  <g id="Capa_1-2" data-name="Capa 1">
    <path class="cls-1" d="M2.34,26.4s0-.02-.01-.02c0,0,0,.02.01.02Z"/>
    <path class="cls-1" d="M1.27,24.19c-.02-.06-.05-.12-.07-.18.02.06.05.12.07.18Z"/>
    <path class="cls-1" d="M1.95,25.69s-.02-.05-.04-.07c.01.02.02.05.04.07Z"/>
    <path class="cls-1" d="M2.15,26.06s-.03-.05-.04-.08c.01.03.03.05.04.08Z"/>
    <path class="cls-1" d="M2.81,27.18s-.04-.06-.06-.09c.02.03.04.06.06.09Z"/>
    <path class="cls-1" d="M2.58,26.81s-.02-.04-.03-.05c.01.02.02.04.03.05Z"/>
    <path class="cls-1" d="M3.03,27.51s-.04-.05-.05-.08c.02.03.04.05.05.08Z"/>
    <path class="cls-1" d="M3.53,28.21s-.03-.03-.04-.05c.01.02.03.03.04.05Z"/>
    <path class="cls-1" d="M4.05,28.86s-.04-.05-.06-.07c.02.02.04.05.06.07Z"/>
    <path class="cls-1" d="M3.26,27.83s0,0,0,0c0,0,0,0,0,0Z"/>
    <path class="cls-1" d="M3.8,28.55s-.04-.05-.06-.08c.02.03.04.05.06.08Z"/>
    <path class="cls-2" d="M28.24,25.96l-.37-1.67h.03l-2.01-9.19c-.16-.4-1.51-.84-1.85-1.21l-1.25-4.9h-.26l-.16.07-6.23.72-1.38,6.5h-3.85l-.73,4.73-4.8,2.11-.26,1.18h0l-1.03,4.63c3.24,3.87,8.1,6.34,13.55,6.34s10.42-2.52,13.65-6.46l-.59-2.76-2.47-.07Z"/>
    <path class="cls-1" d="M1.09,23.74s-.02-.06-.04-.1c.01.03.02.06.04.1Z"/>
    <path class="cls-1" d="M3.25,27.82c-.07-.1-.15-.21-.22-.31.07.11.14.21.22.31Z"/>
    <path class="cls-1" d="M3.99,28.79c-.06-.08-.13-.16-.19-.24.06.08.13.16.19.24Z"/>
    <path class="cls-1" d="M2.98,27.43c-.06-.08-.11-.17-.17-.25.05.08.11.17.17.25Z"/>
    <path class="cls-1" d="M1.3,24.29h0c.19.45.39.9.61,1.33-.22-.43-.42-.88-.61-1.33h0Z"/>
    <path class="cls-1" d="M4.09,28.92h0s-.03-.04-.04-.05c.01.02.03.04.04.05Z"/>
    <path class="cls-1" d="M3.5,28.16c-.08-.11-.16-.22-.24-.33.08.11.16.22.24.33Z"/>
    <path class="cls-1" d="M3.74,28.47c-.07-.09-.13-.17-.2-.26.07.09.13.18.2.26Z"/>
    <path class="cls-1" d="M2.33,26.38c-.06-.11-.12-.21-.18-.32.06.11.12.21.18.32Z"/>
    <path class="cls-1" d="M2.1,25.98c-.05-.1-.1-.19-.15-.29.05.1.1.19.15.29Z"/>
    <path class="cls-1" d="M2.76,27.09c-.06-.09-.12-.19-.18-.28.06.09.12.19.18.28Z"/>
    <path class="cls-1" d="M2.55,26.75c-.07-.12-.14-.23-.21-.35.07.12.14.23.21.35Z"/>
    <path class="cls-1" d="M1.19,24.01c-.03-.09-.07-.18-.1-.26.03.09.07.18.1.26Z"/>
    <path class="cls-1" d="M1.27,24.19s.03.06.04.1h0s-.03-.06-.04-.1Z"/>
    <path class="cls-1" d="M17.64,0C7.9,0,0,7.89,0,17.63c0,2.11.37,4.14,1.06,6.02.01.03.02.06.04.1.03.09.07.18.1.26.02.06.05.12.07.18.01.03.03.06.04.1.19.45.39.9.61,1.33.01.02.02.05.04.07.05.1.1.19.15.29.01.03.03.05.04.08.06.11.12.21.18.32,0,0,0,.02.01.02.07.12.14.23.21.35.01.02.02.04.03.05.06.09.12.19.18.28.02.03.04.06.06.09.05.08.11.17.17.25.02.03.04.05.05.08.07.11.14.21.22.31,0,0,0,0,0,0,.08.11.16.22.24.33.01.02.03.03.04.05.07.09.13.18.2.26.02.03.04.05.06.08.06.08.13.16.19.24.02.02.04.05.06.07.01.02.03.04.04.05l1.03-4.63h0l.26-1.18,4.8-2.11.73-4.73h3.85l1.38-6.5,6.23-.72.16-.07h.26l1.25,4.9c.34.37,1.69.82,1.85,1.21l2.01,9.19h-.03l.37,1.67,2.47.07.59,2.76c1.11-1.35,2.01-2.86,2.68-4.5.84-2.06,1.31-4.31,1.31-6.66C35.28,7.89,27.39,0,17.64,0Z"/>
  </g>
</svg>