<?xml version="1.0" encoding="UTF-8"?>
<svg id="Capa_2" data-name="Capa 2" xmlns="http://www.w3.org/2000/svg" viewBox="0 0 466.68 466.23">
  <defs>
    <style>
      .cls-1 {
        fill: #fff;
      }

      .cls-2 {
        fill: #1d2140;
      }
    </style>
  </defs>
  <g id="Capa_1-2" data-name="Capa 1">
    <g>
      <path class="cls-1" d="M30.95,349.21c-.06-.11-.12-.22-.18-.33.06.11.12.22.18.33Z"/>
      <path class="cls-1" d="M16.75,319.97c-.33-.81-.65-1.62-.97-2.44.32.82.64,1.63.97,2.44Z"/>
      <path class="cls-1" d="M25.82,339.8c-.16-.31-.33-.63-.49-.94.16.31.32.63.49.94Z"/>
      <path class="cls-1" d="M28.39,344.64c-.19-.35-.37-.69-.56-1.04.19.35.37.69.56,1.04Z"/>
      <path class="cls-1" d="M37.19,359.42c-.25-.39-.5-.78-.75-1.17.25.39.5.78.75,1.17Z"/>
      <path class="cls-1" d="M34.13,354.55c-.15-.24-.3-.48-.44-.72.15.24.3.48.44.72Z"/>
      <path class="cls-1" d="M40.12,363.84c-.24-.36-.48-.71-.72-1.07.24.36.48.72.72,1.07Z"/>
      <path class="cls-1" d="M46.74,373.1c-.17-.23-.34-.45-.51-.67.17.23.34.45.51.67Z"/>
      <path class="cls-1" d="M53.56,381.73c-.26-.32-.52-.64-.78-.96.26.32.52.64.78.96Z"/>
      <path class="cls-1" d="M43.06,368.08s-.05-.07-.07-.1c.02.03.05.07.07.1Z"/>
      <path class="cls-1" d="M50.23,377.61c-.28-.35-.55-.7-.83-1.05.27.35.55.7.83,1.05Z"/>
      <path class="cls-2" d="M373.49,343.32l-4.83-22.06h.37l-26.65-121.59c-2.07-5.24-19.98-11.17-24.45-16.05l-16.55-64.79h-3.45l-2.1.89-82.37,9.51-18.2,85.94h-50.9l-9.66,62.61-63.47,27.91-3.46,15.58h-.07l-13.56,61.18c42.8,51.21,107.18,83.8,179.19,83.8s137.78-33.3,180.57-85.48l-7.77-36.49-32.66-.96Z"/>
      <path class="cls-1" d="M14.45,314.04c-.16-.43-.32-.86-.48-1.29.16.43.32.86.48,1.29Z"/>
      <path class="cls-1" d="M42.99,367.98c-.97-1.37-1.93-2.75-2.87-4.14.94,1.39,1.9,2.77,2.87,4.14Z"/>
      <path class="cls-1" d="M52.78,380.77c-.86-1.05-1.71-2.1-2.55-3.16.84,1.06,1.69,2.11,2.55,3.16Z"/>
      <path class="cls-1" d="M39.4,362.77c-.74-1.11-1.48-2.22-2.2-3.34.73,1.12,1.46,2.24,2.2,3.34Z"/>
      <path class="cls-1" d="M17.26,321.25h-.02c2.46,6,5.17,11.87,8.1,17.61-2.93-5.73-5.61-11.61-8.06-17.61h-.02Z"/>
      <path class="cls-1" d="M54.15,382.45v-.02c-.19-.23-.39-.47-.59-.7.2.24.39.48.59.72Z"/>
      <path class="cls-1" d="M46.23,372.43c-1.07-1.44-2.13-2.88-3.17-4.34,1.04,1.46,2.1,2.91,3.17,4.34Z"/>
      <path class="cls-1" d="M49.4,376.56c-.9-1.15-1.78-2.3-2.66-3.46.88,1.16,1.76,2.32,2.66,3.46Z"/>
      <path class="cls-1" d="M30.77,348.89c-.81-1.41-1.6-2.82-2.38-4.25.78,1.43,1.57,2.84,2.38,4.25Z"/>
      <path class="cls-1" d="M27.83,343.6c-.68-1.26-1.35-2.52-2-3.79.66,1.27,1.32,2.54,2,3.79Z"/>
      <path class="cls-1" d="M36.44,358.25c-.78-1.23-1.55-2.46-2.31-3.71.76,1.24,1.53,2.48,2.31,3.71Z"/>
      <path class="cls-1" d="M33.68,353.83c-.93-1.53-1.84-3.07-2.73-4.62.89,1.55,1.81,3.09,2.73,4.62Z"/>
      <path class="cls-1" d="M17.27,321.25c2.45,6,5.14,11.87,8.06,17.61.16.31.32.63.49.94.66,1.27,1.32,2.54,2,3.79.19.35.37.69.56,1.04.78,1.43,1.57,2.84,2.38,4.25.06.11.12.22.18.33.89,1.55,1.81,3.09,2.73,4.62.15.24.3.48.44.72.76,1.24,1.53,2.48,2.31,3.71.25.39.5.78.75,1.17.73,1.12,1.46,2.24,2.2,3.34.24.36.48.72.72,1.07.94,1.39,1.9,2.77,2.87,4.14.02.03.05.07.07.1,1.04,1.46,2.1,2.91,3.17,4.34.17.23.34.45.51.67.88,1.16,1.76,2.32,2.66,3.46.27.35.55.7.83,1.05.84,1.06,1.69,2.11,2.55,3.16.26.32.52.64.78.96.2.24.4.47.59.7l13.56-61.18H17.27Z"/>
      <path class="cls-1" d="M369.04,321.25h-.37l4.83,22.06,32.66.96,7.77,36.49c14.62-17.82,26.63-37.85,35.49-59.5h-80.37Z"/>
      <path class="cls-1" d="M15.78,317.53c-.45-1.16-.9-2.32-1.33-3.49.43,1.17.88,2.33,1.33,3.49Z"/>
      <path class="cls-1" d="M16.75,319.97c.17.43.33.86.51,1.28h.02c-.17-.43-.35-.85-.52-1.28Z"/>
      <path class="cls-1" d="M67.72,321.25h.07l3.46-15.58,63.47-27.91,9.66-62.61h50.9l18.2-85.94,82.37-9.51,2.1-.89h3.45l16.55,64.79c4.46,4.89,22.38,10.81,24.45,16.05l26.65,121.59h80.37c11.13-27.19,17.27-56.95,17.27-88.14C466.68,104.37,362.21,0,233.34,0S0,104.37,0,233.12c0,27.97,4.94,54.79,13.98,79.64.16.43.32.86.48,1.29.43,1.17.88,2.33,1.33,3.49.32.81.64,1.63.97,2.44.17.43.35.85.52,1.28h50.44Z"/>
    </g>
  </g>
</svg>