<?xml version="1.0" encoding="UTF-8"?>
<svg id="Capa_2" data-name="Capa 2" xmlns="http://www.w3.org/2000/svg" viewBox="0 0 283.83 78.11">
  <defs>
    <style>
      .cls-4, .cls-5, .cls-6, .cls-7 {
        fill: #fff;
      }

      .cls-5 {
        font-family: 'Gill Sans', 'Gill Sans MT', Calibri, 'Trebuchet MS', sans-serif;
        font-size: 7.82px;
        font-weight: 300;
        letter-spacing: .04em;
      }

      .cls-2, .cls-3, .cls-8, .cls-9, .cls-11 {
        /* retained for tagline tspans */
      }

      .cls-12 {
        fill: #3c73b9;
      }

      .cls-13 {
        fill: #243366;
      }

      .cls-6 {
        font-family: 'Impact', 'Haettenschweiler', 'Arial Narrow Bold', sans-serif;
        font-size: 21px;
        font-weight: 900;
        letter-spacing: .08em;
      }

      .cls-7 {
        font-family: 'Impact', 'Haettenschweiler', 'Arial Narrow Bold', sans-serif;
        font-size: 30.81px;
        font-weight: 900;
      }

      .cls-14 {
        letter-spacing: .01em;
      }
    </style>
  </defs>
  <g id="Capa_1-2" data-name="Capa 1">
    <g>
      <text class="cls-5" transform="translate(115.49 62.44)"><tspan class="cls-11" x="0" y="0">C</tspan><tspan x="5.31" y="0">ER</tspan><tspan class="cls-8" x="14.78" y="0">C</tspan><tspan x="20.03" y="0">A DE TÍ, </tspan><tspan class="cls-14" x="48.74" y="0">C</tspan><tspan x="54.06" y="0">OMO </tspan><tspan class="cls-2" x="74.39" y="0">U</tspan><tspan class="cls-9" x="79.95" y="0">N</tspan><tspan class="cls-3" x="85.73" y="0">A RO</tspan><tspan class="cls-8" x="103.49" y="0">C</tspan><tspan class="cls-3" x="108.74" y="0">A F</tspan><tspan class="cls-11" x="120.07" y="0">IRM</tspan><tspan class="cls-3" x="133.87" y="0">E</tspan></text>
      <g>
        <g>
          <path class="cls-4" d="M4.96,59.36s-.02-.03-.03-.05c0,.02.02.03.03.05Z"/>
          <path class="cls-4" d="M2.68,54.67c-.05-.13-.1-.26-.15-.39.05.13.1.26.15.39Z"/>
          <path class="cls-4" d="M4.14,57.85c-.03-.05-.05-.1-.08-.15.03.05.05.1.08.15Z"/>
          <path class="cls-4" d="M4.55,58.63c-.03-.06-.06-.11-.09-.17.03.06.06.11.09.17Z"/>
          <path class="cls-4" d="M5.96,60.99c-.04-.06-.08-.12-.12-.19.04.06.08.13.12.19Z"/>
          <path class="cls-4" d="M5.47,60.21s-.05-.08-.07-.11c.02.04.05.08.07.11Z"/>
          <path class="cls-4" d="M6.43,61.7c-.04-.06-.08-.11-.12-.17.04.06.08.11.12.17Z"/>
          <path class="cls-4" d="M7.49,63.19s-.05-.07-.08-.11c.03.04.05.07.08.11Z"/>
          <path class="cls-4" d="M8.58,64.57c-.04-.05-.08-.1-.13-.15.04.05.08.1.13.15Z"/>
          <path class="cls-4" d="M6.9,62.38s0-.01-.01-.02c0,0,0,.01.01.02Z"/>
          <path class="cls-4" d="M8.05,63.91c-.04-.06-.09-.11-.13-.17.04.06.09.11.13.17Z"/>
          <path class="cls-13" d="M59.84,58.41l-.77-3.53h.06l-4.27-19.48c-.33-.84-3.2-1.79-3.92-2.57l-2.65-10.38h-.55l-.34.14-13.2,1.52-2.92,13.77h-8.15l-1.55,10.03-10.17,4.47-.55,2.5h-.01l-2.17,9.8c6.86,8.2,17.17,13.43,28.71,13.43s22.07-5.33,28.93-13.69l-1.24-5.85-5.23-.15Z"/>
          <path class="cls-4" d="M2.32,53.72c-.03-.07-.05-.14-.08-.21.03.07.05.14.08.21Z"/>
          <path class="cls-12" d="M6.89,62.36c-.16-.22-.31-.44-.46-.66.15.22.3.44.46.66Z"/>
          <path class="cls-12" d="M8.46,64.41c-.14-.17-.27-.34-.41-.51.13.17.27.34.41.51Z"/>
          <path class="cls-12" d="M6.31,61.53c-.12-.18-.24-.36-.35-.54.12.18.23.36.35.54Z"/>
          <path class="cls-12" d="M2.76,54.88h0c.39.96.83,1.9,1.3,2.82-.47-.92-.9-1.86-1.29-2.82h0Z"/>
          <path class="cls-12" d="M8.68,64.68h0s-.06-.08-.1-.12c.03.04.06.08.09.12Z"/>
          <path class="cls-12" d="M7.41,63.08c-.17-.23-.34-.46-.51-.7.17.23.34.47.51.7Z"/>
          <path class="cls-12" d="M7.91,63.74c-.14-.18-.29-.37-.43-.56.14.19.28.37.43.56Z"/>
          <path class="cls-12" d="M4.93,59.31c-.13-.23-.26-.45-.38-.68.12.23.25.46.38.68Z"/>
          <path class="cls-12" d="M4.46,58.46c-.11-.2-.22-.4-.32-.61.11.2.21.41.32.61Z"/>
          <path class="cls-12" d="M5.84,60.81c-.13-.2-.25-.39-.37-.59.12.2.25.4.37.59Z"/>
          <path class="cls-12" d="M5.4,60.1c-.15-.24-.29-.49-.44-.74.14.25.29.5.44.74Z"/>
          <path class="cls-12" d="M2.53,54.28c-.07-.19-.14-.37-.21-.56.07.19.14.37.21.56Z"/>
          <path class="cls-12" d="M2.68,54.67c.03.07.05.14.08.21h0c-.03-.07-.06-.14-.08-.21Z"/>
          <path class="cls-4" d="M37.38,3.41C16.74,3.41,0,20.13,0,40.76c0,4.48.79,8.78,2.24,12.76.03.07.05.14.08.21.07.19.14.37.21.56.05.13.1.26.16.39.03.07.06.14.08.21.39.96.82,1.9,1.29,2.82.03.05.05.1.08.15.11.2.21.41.32.61.03.06.06.11.09.17.12.23.25.46.38.68.01.02.02.03.03.05.14.25.29.5.44.74.02.04.05.08.07.11.12.2.25.4.37.59.04.06.08.12.12.19.12.18.23.36.35.54.04.06.08.11.12.17.15.22.3.44.46.66,0,0,0,.01.01.02.17.23.34.47.51.7.03.04.05.07.08.11.14.19.28.37.43.56.04.06.09.11.13.17.13.17.27.34.41.51.04.05.08.1.13.15.03.04.06.07.09.11l2.17-9.8h.01l.55-2.5,10.17-4.47,1.55-10.03h8.15l2.92-13.77,13.2-1.52.34-.14h.55l2.65,10.38c.72.78,3.59,1.73,3.92,2.57l4.27,19.48h-.06l.77,3.53,5.23.15,1.24,5.85c2.34-2.86,4.27-6.06,5.69-9.53,1.78-4.36,2.77-9.12,2.77-14.12,0-20.63-16.74-37.35-37.38-37.35Z"/>
        </g>
        <text class="cls-6" transform="translate(122.59 17.95)">FARMACIA</text>
        <g>
          <path class="cls-4" d="M120.64,35.58c3.6-4.35.19-11.12-5.4-11.12h-10.28v23.29s11.49,0,11.49,0c6.42-.09,9.28-8.18,4.19-12.17ZM118.35,37.92h-2.95c0,.9,0,3.83,0,3.83-.1,2.63-3.94,2.7-4.04,0v-3.83s-2.95,0-2.95,0c-2.66-.06-2.66-3.97,0-4.04h2.95v-4.1c.1-2.63,3.94-2.7,4.04,0v4.1s2.95,0,2.95,0c2.66.06,2.66,3.97,0,4.04Z"/>
          <text class="cls-7" transform="translate(85.58 47.76)"><tspan x="0" y="0">E</tspan></text>
          <g>
            <path class="cls-4" d="M192.81,24.28c-2.5-1.05-5.37-.32-7.29,1.56-.5.49-.97.99-1.32,1.58-.21.35-.43.57-.81.57s-.64-.16-.85-.53c-.35-.62-.83-1.12-1.34-1.63-2.59-2.54-6.61-2.78-9.21-.31s-2.3,5.52-.66,8.47c.25.44.3.9-.13,1.25-.3.25-.92.29-1.2-.16-.85-1.36-1.55-3.27-1.65-4.9-.12-1.95.6-3.78,1.86-5.26,1.4-1.64,3.35-2.61,5.5-2.81,3.02-.23,5.75,1.19,7.66,3.55,1.89-2.35,4.65-3.79,7.66-3.55,2.16.2,4.1,1.16,5.5,2.81,1.28,1.51,2.01,3.4,1.84,5.37-.14,1.6-.83,3.61-1.69,4.87-.29.42-.92.29-1.17.06-.39-.36-.33-.79-.09-1.22,1.07-1.95,1.78-4.28.81-6.41-.68-1.49-1.89-2.67-3.4-3.3Z"/>
            <g>
              <path class="cls-4" d="M201.09,36.5v.55c-.19.32-.41.61-.87.61h-11.72c-.76.01-.91-.52-1.34-1.01l-1.2,4.43c-.11.41-.46.58-.87.55-.35-.03-.68-.27-.74-.66l-1.11-6.81-.61,2.75c-.08.37-.31.63-.66.7-.3.07-.64-.04-.86-.31l-.97-1.24c-.35.5-.39,1.59-1.29,1.59h-12.27c-.54,0-.89-.34-.94-.8-.04-.42.26-.92.78-.92h11.89s.71-1.72.71-1.72c.15-.36.33-.59.71-.66.33-.06.63.09.86.38l.74.9,1.2-5.56c.09-.41.42-.67.82-.68.29-.01.75.23.81.61l1.23,7.44.62-2.16c.1-.34.44-.53.73-.56.36-.04.63.18.83.45.4.54.78,1.04,1.23,1.56h11.41c.45,0,.69.22.91.55Z"/>
              <path class="cls-4" d="M192.7,40.38c-1.11,1.19-1.91,1.95-3.11,3.04l-.73.66-.74.64-1.43,1.21-2.73,2.24c-.48.4-.92.24-1.36-.13-2-1.65-3.98-3.28-5.9-5.02l-.59-.53c-.74-.67-1.42-1.39-2.1-2.12l-.74-.79c-.37-.39-.29-.9.07-1.23s.91-.26,1.24.12l.48.56,2.64,2.62c.58.57,5.39,4.72,5.61,4.75.25.03,5.09-4.17,5.68-4.75l2.64-2.62.48-.56c.33-.38.87-.46,1.24-.12s.44.84.07,1.23l-.74.79Z"/>
            </g>
          </g>
          <g>
            <polygon class="cls-4" points="125.6 47.77 139.95 47.77 139.95 42.81 131.67 42.81 131.67 38.55 139 38.55 139 33.44 131.67 33.44 131.67 29.68 139.95 29.68 139.95 24.66 125.6 24.66 125.6 47.77"/>
            <path class="cls-4" d="M162.1,36.93c0-1.09.69-2.02,1.66-2.37v-9.9h-6.07v10.91l-10.94-10.91h-2.46v23.11h6.07v-10.94l10.91,10.94h2.5v-8.47c-.97-.35-1.66-1.28-1.66-2.37Z"/>
          </g>
          <g>
            <path class="cls-4" d="M204.15,34.53c.94.36,1.62,1.28,1.62,2.35s-.67,1.99-1.62,2.35v8.32h14.36v-4.96h-8.29v-4.25h7.33v-5.11h-7.33v-3.76h8.29v-5.02h-14.36v10.09Z"/>
            <polygon class="cls-4" points="221.87 24.44 221.87 30.54 231.11 30.54 221.28 47.55 240.72 47.55 240.72 41.48 231.79 41.48 241.62 24.44 221.87 24.44"/>
            <polygon class="cls-4" points="244.73 47.55 259.09 47.55 259.09 42.58 250.8 42.58 250.8 38.33 258.13 38.33 258.13 33.22 250.8 33.22 250.8 29.46 259.09 29.46 259.09 24.44 244.73 24.44 244.73 47.55"/>
            <path class="cls-4" d="M278.93,39.17c1.66-1.54,2.74-3.76,2.74-6.22,0-4.68-3.82-8.5-8.5-8.5h-9.74v23.11h6.07v-6.13h3.76l3.57,6.13h6.99l-4.9-8.38ZM273.26,36.18h-3.76v-6.62h3.76c1.85,0,3.33,1.48,3.33,3.33s-1.48,3.3-3.33,3.3Z"/>
          </g>
          <circle class="cls-4" cx="166.51" cy="36.97" r="1.86"/>
          <circle class="cls-4" cx="201.52" cy="36.77" r="1.86"/>
        </g>
      </g>
    </g>
  </g>
</svg>